<?xml version="1.0" standalone="no"?><!DOCTYPE svg PUBLIC "-//W3C//DTD SVG 1.1//EN" "http://www.w3.org/Graphics/SVG/1.1/DTD/svg11.dtd"><svg t="1703321302753" class="icon" viewBox="0 0 1024 1024" version="1.1" xmlns="http://www.w3.org/2000/svg" p-id="3085" xmlns:xlink="http://www.w3.org/1999/xlink" width="200" height="200"><path d="M701.2 577.872l-272.4-272.4v-4.38a100.548 100.548 0 0 0 6.4-35.496v-128c0-49.484-34.984-89.6-78.14-89.6H245.432c-43.156 0-78.14 40.116-78.14 89.6v19.272c0 5.656-3.712 10.64-9.128 12.264L92.504 188.8h-0.008c-22.804 0-41.292 21.2-41.292 47.352v71.7C51.2 334 69.688 355.2 92.492 355.2H244.048c3.472 0 6.568 1.504 8.752 3.864v90.572c-47.208 49.468-46.54 127.824 2.068 176.432L355.2 726.4l85.756 114.34C469.436 919.608 544.912 976 633.6 976c113.108 0 204.8-91.692 204.8-204.8 0-89.412-57.32-165.396-137.2-193.328z" fill="#A4C9FF" p-id="3086"></path><path d="M92.488 355.2H188a12.8 12.8 0 0 0 12.8-12.8v-36.572C200.8 269.472 166.416 240 124 240H51.2v67.848c0 26.152 18.484 47.348 41.288 47.352z" fill="#E0EBFC" p-id="3087"></path><path d="M839.8 820.452c-25.44 0-44.68-4.864-46.264-5.28a25.6 25.6 0 0 1 12.86-49.56c1.1 0.276 55.848 13.608 88.556-11.828 17.68-13.752 26.648-38.04 26.648-72.184a25.6 25.6 0 0 1 51.2 0c0 50.92-15.708 88.88-46.692 112.816-26.94 20.812-59.952 26.036-86.308 26.036z" fill="#A4C9FF" p-id="3088"></path><path d="M839.8 828.448c-26.368 0-46.12-4.972-48.288-5.54-17.916-4.676-28.7-23.064-24.028-40.992 4.664-17.872 23.016-28.676 40.912-24.052 0.456 0.108 52.084 12.588 81.648-10.4 15.632-12.16 23.56-34.32 23.56-65.868 0-18.528 15.072-33.6 33.596-33.6s33.6 15.076 33.6 33.6c0 53.524-16.752 93.608-49.8 119.144-23.46 18.132-54.996 27.708-91.2 27.708z m-39.764-55.636a17.64 17.64 0 0 0-17.068 13.144 17.62 17.62 0 0 0 12.588 21.472c0.788 0.208 19.456 5.02 44.244 5.02 22.752 0 55.348-4.228 81.416-24.368 28.916-22.344 43.584-58.168 43.584-106.48 0-9.708-7.896-17.6-17.6-17.6a17.616 17.616 0 0 0-17.596 17.6c0 36.74-10.004 63.148-29.736 78.496-35.676 27.744-92.984 13.876-95.404 13.276a17.988 17.988 0 0 0-4.428-0.56z" fill="#3762CC" p-id="3089"></path><path d="M633.6 771.2m-204.8 0a204.8 204.8 0 1 0 409.6 0 204.8 204.8 0 1 0-409.6 0Z" fill="#A4C9FF" p-id="3090"></path><path d="M591.88 976h-168.824a18.252 18.252 0 0 1-18.252-18.252v-4.308c0-32.932 26.696-59.628 59.628-59.628h127.452c21.508 0 38.94 17.436 38.94 38.94v4.308c-0.004 21.504-17.436 38.94-38.944 38.94zM368 624l-115.2-19.2 54.62 288h-32.868c-26.152 0-47.352 21.2-47.352 47.352v21.352A14.496 14.496 0 0 0 241.696 976h99.284c21.756 0 39.164-18.056 38.376-39.796L368 624z" fill="#A4C9FF" p-id="3091"></path><path d="M236.8 176a19.2 19.2 0 0 1-19.2-19.2v-25.6a19.2 19.2 0 1 1 38.4 0v25.6a19.2 19.2 0 0 1-19.2 19.2zM633.6 984c-9.364 0-18.936-0.648-28.484-1.928-4.34 1.28-8.784 1.928-13.24 1.928h-168.824a26.28 26.28 0 0 1-26.252-26.252v-4.308c0-33.988 25.212-62.204 57.912-66.928-22.232-34.344-33.912-73.916-33.912-115.308 0-49.32 17.256-97.392 48.592-135.364a8.004 8.004 0 0 1 12.344 10.184c-28.98 35.108-44.936 79.568-44.936 125.176 0 42.864 13.54 83.604 39.148 117.82a8 8 0 1 1-6.4 12.792h-5.116c-28.468 0-51.628 23.16-51.628 51.624v4.308a10.264 10.264 0 0 0 10.252 10.252h168.824c3.348 0 6.7-0.564 9.972-1.676 1.192-0.404 2.452-0.52 3.704-0.344a199.6 199.6 0 0 0 28.048 2.02c108.516 0 196.796-88.284 196.796-196.8a8 8 0 0 1 16 0c0 117.344-95.464 212.804-212.8 212.804z" fill="#3762CC" p-id="3092"></path><path d="M633.6 984c-88.972 0-169.088-55.972-199.752-139.408l-52.36-69.808 5.86 161.128a46.012 46.012 0 0 1-12.964 33.892A46.02 46.02 0 0 1 340.976 984h-99.28a22.52 22.52 0 0 1-22.496-22.496v-21.352c0-30.52 24.832-55.352 55.352-55.352h23.212l-47.868-252.392-0.68-0.68c-50.372-50.372-52.084-132.784-4.416-185.244V363.272a3.744 3.744 0 0 0-0.752-0.076H92.492c-27.18 0-49.292-24.828-49.292-55.348V236.148c0-30.064 21.456-54.604 48.08-55.332l64.588-19.348a4.76 4.76 0 0 0 3.424-4.596V137.6c0-53.816 38.64-97.6 86.14-97.6h111.624C404.56 40 443.2 83.784 443.2 137.6v128c0 12.648-2.12 24.972-6.304 36.656l268.684 268.68C789.884 601.24 846.4 681.48 846.4 771.2c0 117.34-95.464 212.8-212.8 212.8z m-261.032-242.444a8 8 0 0 1 6.4 3.2l68.392 91.188c0.476 0.636 0.856 1.336 1.124 2.084C476.552 915.764 550.944 968 633.6 968c108.516 0 196.796-88.284 196.796-196.8 0-83.544-52.98-158.2-131.84-185.772a7.976 7.976 0 0 1-3.016-1.896l-272.4-272.4a8 8 0 0 1-2.344-5.656v-4.384a8 8 0 0 1 0.516-2.82 92.34 92.34 0 0 0 5.884-32.672v-128c0-44.996-31.464-81.6-70.14-81.6H245.432c-38.676 0-70.14 36.604-70.14 81.6v19.268a20.668 20.668 0 0 1-14.836 19.924L94.8 196.464c-0.748 0.224-1.52 0.336-2.296 0.336-18.372 0-33.304 17.652-33.304 39.348v71.704c0 21.696 14.932 39.348 33.292 39.348h151.556a20 20 0 0 1 14.628 6.436c1.368 1.48 2.124 3.416 2.124 5.428v90.572a8 8 0 0 1-2.212 5.524c-43.976 46.08-43.104 120.212 1.932 165.252l2.42 2.416c1.136 1.136 1.908 2.588 2.208 4.168l50.128 264.308a7.996 7.996 0 0 1-7.86 9.492h-32.872c-21.7 0-39.352 17.652-39.352 39.352v21.352c0 3.584 2.916 6.496 6.496 6.496h99.28a30.144 30.144 0 0 0 21.888-9.3 30.14 30.14 0 0 0 8.492-22.204l-6.784-186.652a8.008 8.008 0 0 1 8.004-8.284z" fill="#3762CC" p-id="3093"></path><path d="M448 284.8h-43.732c-32.4 0-58.668-26.264-58.668-58.668V48h76.8c42.416 0 76.8 34.384 76.8 76.8v108.8c0 28.276-22.924 51.2-51.2 51.2z" fill="#4671C6" p-id="3094"></path><path d="M448 292.8h-43.736c-36.756 0-66.664-29.908-66.664-66.668V48a8 8 0 0 1 8-8h76.8c46.756 0 84.8 38.044 84.8 84.8v108.8c0 32.644-26.56 59.2-59.2 59.2zM353.6 56v170.132c0 27.936 22.728 50.668 50.664 50.668H448c23.82 0 43.2-19.38 43.2-43.2V124.8c0-37.936-30.864-68.8-68.8-68.8H353.6z" fill="#3762CC" p-id="3095"></path><path d="M108.8 233.6v-32c0-6.072-2.2-11.576-5.732-15.964l-10.564 3.164h-0.008c-22.804 0-41.292 21.2-41.292 47.348V259.2h32a25.6 25.6 0 0 0 25.596-25.6z" fill="#4671C6" p-id="3096"></path><path d="M409.072 660c-22.056 0-40-17.944-40-40V324c0-22.056 17.944-40 40-40h336c22.056 0 40 17.944 40 40v296c0 22.056-17.944 40-40 40h-336z" fill="#F9A7A7" p-id="3097"></path><path d="M729.072 324h-281.748l253.872 253.872a204.12 204.12 0 0 1 43.872 21.58V340c0.004-8.836-7.16-16-15.996-16z" fill="#4671C6" p-id="3098"></path><path d="M447.324 324h-22.252a16 16 0 0 0-16 16v264a16 16 0 0 0 16 16h304a15.936 15.936 0 0 0 11.312-4.688c0.128-0.124 0.22-0.284 0.34-0.416a15.892 15.892 0 0 0 4.344-10.9v-4.548a204.12 204.12 0 0 0-43.872-21.58L447.324 324z" fill="#4671C6" p-id="3099"></path><path d="M425.072 620zM409.072 604zM418.844 325.256zM418.844 325.256zM740.728 614.9c-0.124 0.132-0.216 0.288-0.34 0.416a15.984 15.984 0 0 0 3.504-5.324 16.348 16.348 0 0 1-3.164 4.908zM744.756 607.124z" fill="#B9BEFC" p-id="3100"></path><path d="M690.836 620l-60.016-59.86-0.016-0.02-120.764-120.444-0.004-0.004-41.024-40.916-0.012-0.016-59.832-59.672c-0.02 0.316-0.096 0.612-0.096 0.932V372.868l36.5 36.408a196.288 196.288 0 0 1-36.5 44.484v30.872a220.796 220.796 0 0 0 53.896-58.008l23.232 23.172a250.888 250.888 0 0 1-77.128 73.568v27.7a274.888 274.888 0 0 0 94.376-84.06l22.9 22.836c-30.572 41.992-70.7 75.124-117.276 97.032V604c0 2.976 0.868 5.732 2.284 8.116 52.476-23.016 97.736-58.992 132.152-105.164l22.936 22.876A362.02 362.02 0 0 1 465.792 620h42.92a386.224 386.224 0 0 0 74.848-73.1l22.804 22.744a422.352 422.352 0 0 1-47.228 50.36h34.456c10.476-10.6 20.46-21.72 29.844-33.332l33.42 33.332h33.98z" fill="#E0EBFC" p-id="3101"></path><path d="M692.712 586.36c1.272 1.276 2.82 2.248 4.524 2.844a192.348 192.348 0 0 1 41.292 20.308c1.472 0.96 3.076 1.54 4.704 1.792 1.136-2.196 1.84-4.656 1.84-7.304v-18.6a216.156 216.156 0 0 0-37.296-17.916L464.296 324h-28.968c0 3.072 1.172 6.144 3.516 8.484l253.868 253.876z" fill="#F9CFCF" p-id="3102"></path><path d="M729.072 628h-304c-13.236 0-24-10.764-24-24V340c0-13.236 10.764-24 24-24h304c13.236 0 24 10.764 24 24v264c0 13.236-10.768 24-24 24z m-304-296c-4.412 0-8 3.588-8 8v264c0 4.412 3.588 8 8 8h304c4.412 0 8-3.588 8-8V340c0-4.412-3.588-8-8-8h-304z" fill="#3762CC" p-id="3103"></path><path d="M745.072 668h-336c-26.468 0-48-21.532-48-48V324c0-26.468 21.532-48 48-48h336c26.468 0 48 21.532 48 48v296c0 26.468-21.532 48-48 48z m-336-376c-17.644 0-32 14.356-32 32v296c0 17.644 14.356 32 32 32h336c17.644 0 32-14.356 32-32V324c0-17.644-14.356-32-32-32h-336z" fill="#3762CC" p-id="3104"></path></svg>